# xmcd
#
# Track frame offsets:
#	150
#	5406
#	24284
#	49195
#	88031
#	134351
#	161113
#	169472
#	180235
#	233011
#
# Disc length: 3643 seconds
#
# Revision: 1
# Processed by: cddbd v1.5.2PL0 Copyright (c) Steve Scherf et al.
# Submitted via: audiograbber 1.83.01
#
DISCID=750e390a
DTITLE=Grateful Dead - 71-02-19 Capitol Theatre, Port Chester NY
DYEAR=1900
DGENRE=
TTITLE0=Tuning 2
TTITLE1=Greatest Story Ever Told
TTITLE2=Johnny B Goode
TTITLE3=Bird Song
TTITLE4=Easy Wind
TTITLE5=Deal
TTITLE6=Cryptical Envelopment
TTITLE7=Drums
TTITLE8=The Other One
TTITLE9=Wharf Rat
EXTD=
EXTT0=
EXTT1=
EXTT2=
EXTT3=
EXTT4=
EXTT5=
EXTT6=
EXTT7=
EXTT8=
EXTT9=
PLAYORDER=
